<?xml version="1.0" encoding="utf-8"?>
<!-- Generator: Adobe Illustrator 13.0.0, SVG Export Plug-In . SVG Version: 6.00 Build 14948)  -->
<!DOCTYPE svg PUBLIC "-//W3C//DTD SVG 1.1//EN" "http://www.w3.org/Graphics/SVG/1.1/DTD/svg11.dtd">
<svg version="1.1"
	 id="svg3315" sodipodi:version="0.32" sodipodi:docname="tryout.svg" inkscape:version="0.46" inkscape:output_extension="org.inkscape.output.svg.inkscape" xmlns:cc="http://creativecommons.org/ns#" xmlns:rdf="http://www.w3.org/1999/02/22-rdf-syntax-ns#" xmlns:svg="http://www.w3.org/2000/svg" xmlns:sodipodi="http://sodipodi.sourceforge.net/DTD/sodipodi-0.dtd" xmlns:inkscape="http://www.inkscape.org/namespaces/inkscape" xmlns:dc="http://purl.org/dc/elements/1.1/"
	 xmlns="http://www.w3.org/2000/svg" xmlns:xlink="http://www.w3.org/1999/xlink" x="0px" y="0px" width="135px" height="135px"
	 viewBox="0 0 135 135" enable-background="new 0 0 135 135" xml:space="preserve">
<defs>
	
	
		<inkscape:perspective  id="perspective3322" inkscape:persp3d-origin="372.04724 : 350.78739 : 1" inkscape:vp_z="1230.8043 : 373.12767 : 1" inkscape:vp_y="6.1230318e-14 : 1000 : 0" inkscape:vp_x="-468.34345 : 278.23456 : 1" sodipodi:type="inkscape:persp3d">
		</inkscape:perspective>
</defs>
<sodipodi:namedview  id="base" inkscape:current-layer="svg3315" inkscape:window-y="-4" inkscape:window-x="-4" inkscape:pageopacity="0.0" inkscape:pageshadow="2" inkscape:window-width="1024" inkscape:window-height="712" inkscape:cy="106.49341" inkscape:cx="250" inkscape:zoom="1.848" showgrid="false" pagecolor="#ffffff" bordercolor="#666666" borderopacity="1.0" objecttolerance="10.0" gridtolerance="10.0" guidetolerance="10.0">
	</sodipodi:namedview>
<g id="g3935">
	<path id="rect3326" fill="#D4C462" d="M15.464,5h104.072C125.314,5,130,9.685,130,15.464v104.072
		c0,5.778-4.686,10.464-10.464,10.464H15.464C9.685,130,5,125.314,5,119.536V15.464C5,9.685,9.685,5,15.464,5z"/>
	<g id="flowRoot3837" transform="matrix(0.279661,0,0,0.2613122,-2.86925,2.17195)">
	</g>
	<path id="text3845" d="M40.433,75.145l6.58-0.934c0.175,4.353,0.965,7.332,2.369,8.938c1.404,1.606,3.347,2.41,5.828,2.41
		c1.83,0,3.409-0.435,4.737-1.303c1.329-0.867,2.244-2.046,2.745-3.535c0.501-1.49,0.752-3.867,0.752-7.131V34.343h7.294v38.819
		c0,4.768-0.559,8.459-1.674,11.074c-1.115,2.617-2.882,4.611-5.301,5.984s-5.258,2.061-8.516,2.061
		c-4.838,0-8.542-1.438-11.111-4.314C41.567,85.092,40.333,80.817,40.433,75.145L40.433,75.145z"/>
	<path id="text3849" d="M93.23,89.168c-1.244-0.471-2.165-1.141-2.764-2.011c-0.6-0.87-0.9-1.913-0.9-3.127
		c0-1.833,0.639-3.374,1.916-4.622c1.275-1.248,2.975-1.873,5.095-1.873c2.131,0,3.847,0.639,5.146,1.916
		c1.298,1.277,1.947,2.832,1.947,4.665c0,1.169-0.297,2.185-0.891,3.05s-1.496,1.531-2.705,2.002
		c1.498,0.504,2.639,1.316,3.421,2.439s1.174,2.463,1.175,4.021c-0.001,2.153-0.738,3.963-2.215,5.429
		c-1.477,1.467-3.42,2.199-5.828,2.199s-4.352-0.735-5.828-2.207c-1.477-1.473-2.215-3.308-2.215-5.507
		c0-1.638,0.402-3.01,1.207-4.115C90.597,90.322,91.742,89.568,93.23,89.168L93.23,89.168z M92.631,83.928
		c0,1.191,0.371,2.164,1.115,2.92s1.709,1.135,2.897,1.135c1.154,0,2.101-0.375,2.839-1.126c0.738-0.75,1.107-1.669,1.107-2.757
		c0-1.135-0.381-2.088-1.141-2.861s-1.707-1.16-2.839-1.16c-1.144,0-2.093,0.379-2.847,1.135
		C93.008,81.969,92.631,82.873,92.631,83.928L92.631,83.928z M91.665,95.559c0,0.883,0.202,1.736,0.608,2.561
		c0.404,0.824,1.007,1.463,1.806,1.916c0.8,0.452,1.659,0.678,2.581,0.678c1.432,0,2.614-0.475,3.547-1.426
		c0.932-0.95,1.398-2.158,1.398-3.625c0-1.488-0.48-2.721-1.44-3.693c-0.96-0.975-2.161-1.461-3.604-1.461
		c-1.41,0-2.578,0.48-3.506,1.443C92.129,92.913,91.665,94.115,91.665,95.559L91.665,95.559z"/>
</g>
</svg>
